<svg width="250" height="250" viewBox="0 0 250 250" fill="none" xmlns="http://www.w3.org/2000/svg">
<path d="M19.7304 73.0392C29.8611 83.7418 41.1765 92.8922 53.6765 100.49C66.2582 108.088 79.6569 113.889 93.8726 117.892C108.17 121.814 122.876 123.775 137.99 123.775C155.882 123.693 173.121 120.752 189.706 114.951C206.373 109.15 221.609 100.817 235.417 89.951L228.431 76.2255C215.768 86.7647 201.716 94.8529 186.275 100.49C170.833 106.046 154.739 108.864 137.99 108.946C116.258 109.028 95.6699 104.575 76.2255 95.5882C56.8627 86.6013 40.3186 74.0196 26.5931 57.8431L19.7304 73.0392ZM6.61765 143.015C22.549 156.577 39.9101 167.402 58.701 175.49C77.5735 183.497 97.0588 188.644 117.157 190.931C137.337 193.219 157.435 192.565 177.451 188.971C197.467 185.376 216.667 178.758 235.049 169.118L234.681 152.328C216.871 162.623 198.08 169.771 178.309 173.775C158.538 177.696 138.685 178.513 118.75 176.225C98.8971 173.938 79.6977 168.627 61.152 160.294C42.6062 151.879 25.6536 140.564 10.2941 126.348L6.61765 143.015ZM67.402 227.206L84.9265 231.25C80.8415 221.364 77.6961 211.234 75.4902 200.858C73.2843 190.482 72.0997 179.943 71.9363 169.24C70.7925 148.897 72.7941 129.126 77.9412 109.926C83.1699 90.7271 91.1765 72.7941 101.961 56.1275C112.745 39.3791 125.94 24.6324 141.544 11.8873L125.858 5.7598C110.417 19.4853 97.3856 35.0899 86.7647 52.5735C76.1438 69.9755 68.2598 88.6029 63.1127 108.456C58.0474 128.227 56.0458 148.57 57.1078 169.485C57.2712 179.289 58.2108 189.011 59.9265 198.652C61.6422 208.292 64.134 217.81 67.402 227.206ZM148.162 239.338L162.01 233.211C150.572 217.034 141.789 199.551 135.662 180.76C129.616 161.887 126.593 142.443 126.593 122.426C126.593 103.391 129.289 84.9673 134.681 67.1569C140.074 49.3464 147.958 32.7206 158.333 17.2794L143.873 12.1324C133.415 28.5539 125.449 46.1193 119.975 64.8284C114.502 83.5376 111.765 102.737 111.765 122.426C111.765 143.587 114.869 164.093 121.078 183.946C127.288 203.717 136.315 222.181 148.162 239.338ZM220.343 193.75L230.27 182.475C216.544 174.632 204.657 164.788 194.608 152.941C184.641 141.095 176.879 127.9 171.324 113.358C165.85 98.8154 162.99 83.5376 162.745 67.5245C162.663 58.9461 163.358 50.4493 164.828 42.0343C166.299 33.6193 168.587 25.4902 171.691 17.6471L157.353 13.6029C154.085 22.1814 151.675 31.0049 150.123 40.0735C148.57 49.0605 147.835 58.2516 147.917 67.6471C148.162 85.049 151.225 101.716 157.108 117.647C162.99 133.497 171.324 147.958 182.108 161.029C192.892 174.02 205.637 184.926 220.343 193.75ZM71.8137 122.304C77.0425 122.304 81.4951 120.425 85.1716 116.667C88.9297 112.909 90.8088 108.374 90.8088 103.064C90.8088 97.7533 88.9297 93.2598 85.1716 89.5833C81.4951 85.8252 77.0425 83.9461 71.8137 83.9461C66.4216 83.9461 61.8464 85.8252 58.0882 89.5833C54.4118 93.2598 52.5735 97.7533 52.5735 103.064C52.5735 108.374 54.4118 112.909 58.0882 116.667C61.8464 120.425 66.4216 122.304 71.8137 122.304ZM165.686 132.475C170.833 132.475 175.245 130.637 178.922 126.961C182.598 123.203 184.436 118.709 184.436 113.48C184.436 108.333 182.598 103.922 178.922 100.245C175.245 96.5686 170.833 94.7304 165.686 94.7304C160.376 94.7304 155.882 96.5686 152.206 100.245C148.529 103.922 146.691 108.333 146.691 113.48C146.691 118.709 148.529 123.203 152.206 126.961C155.882 130.637 160.376 132.475 165.686 132.475ZM129.167 203.309C134.395 203.309 138.848 201.471 142.525 197.794C146.283 194.036 148.162 189.502 148.162 184.191C148.162 178.881 146.283 174.387 142.525 170.711C138.848 166.953 134.395 165.074 129.167 165.074C123.775 165.074 119.199 166.953 115.441 170.711C111.765 174.387 109.926 178.881 109.926 184.191C109.926 189.502 111.765 194.036 115.441 197.794C119.199 201.471 123.775 203.309 129.167 203.309ZM125 250C142.075 250 158.129 246.732 173.162 240.196C188.276 233.66 201.593 224.632 213.113 213.113C224.632 201.593 233.66 188.317 240.196 173.284C246.732 158.17 250 142.075 250 125C250 107.925 246.732 91.8709 240.196 76.8382C233.66 61.7239 224.632 48.4069 213.113 36.8873C201.593 25.3676 188.276 16.3399 173.162 9.80392C158.047 3.26797 141.953 0 124.877 0C107.802 0 91.7075 3.26797 76.5931 9.80392C61.5605 16.3399 48.2843 25.3676 36.7647 36.8873C25.3268 48.4069 16.3399 61.7239 9.80392 76.8382C3.26797 91.8709 0 107.925 0 125C0 142.075 3.26797 158.17 9.80392 173.284C16.3399 188.317 25.3676 201.593 36.8873 213.113C48.4069 224.632 61.683 233.66 76.7157 240.196C91.8301 246.732 107.925 250 125 250ZM125 233.333C110.212 233.333 96.2827 230.474 83.2108 224.755C70.1389 219.118 58.6193 211.315 48.652 201.348C38.6846 191.381 30.8415 179.861 25.1225 166.789C19.4853 153.717 16.6667 139.788 16.6667 125C16.6667 110.212 19.4853 96.2827 25.1225 83.2108C30.8415 70.1389 38.6438 58.6193 48.5294 48.652C58.4967 38.6846 70.0163 30.8824 83.0882 25.2451C96.1601 19.5261 110.09 16.6667 124.877 16.6667C139.665 16.6667 153.595 19.5261 166.667 25.2451C179.739 30.8824 191.258 38.6846 201.225 48.652C211.275 58.6193 219.118 70.1389 224.755 83.2108C230.474 96.2827 233.333 110.212 233.333 125C233.333 139.788 230.474 153.717 224.755 166.789C219.118 179.861 211.315 191.381 201.348 201.348C191.381 211.315 179.861 219.118 166.789 224.755C153.717 230.474 139.788 233.333 125 233.333Z" fill="url(#paint0_linear_1360_12574)"/>
<defs>
<linearGradient id="paint0_linear_1360_12574" x1="125" y1="0" x2="125" y2="250" gradientUnits="userSpaceOnUse">
<stop stop-color="#1F5AFF"/>
<stop offset="1" stop-color="#1F5AFF"/>
</linearGradient>
</defs>
</svg>
