<svg width="32" height="33" viewBox="0 0 32 33" fill="none" xmlns="http://www.w3.org/2000/svg">
<g clip-path="url(#clip0_598_6340)">
<path d="M16 6.53594C19.2063 6.53594 19.5859 6.55 20.8469 6.60625C22.0188 6.65781 22.6516 6.85469 23.0734 7.01875C23.6313 7.23438 24.0344 7.49688 24.4516 7.91406C24.8734 8.33594 25.1313 8.73438 25.3469 9.29219C25.5109 9.71406 25.7078 10.3516 25.7594 11.5187C25.8156 12.7844 25.8297 13.1641 25.8297 16.3656C25.8297 19.5719 25.8156 19.9516 25.7594 21.2125C25.7078 22.3844 25.5109 23.0172 25.3469 23.4391C25.1313 23.9969 24.8688 24.4 24.4516 24.8172C24.0297 25.2391 23.6313 25.4969 23.0734 25.7125C22.6516 25.8766 22.0141 26.0734 20.8469 26.125C19.5813 26.1812 19.2016 26.1953 16 26.1953C12.7938 26.1953 12.4141 26.1812 11.1531 26.125C9.98125 26.0734 9.34844 25.8766 8.92656 25.7125C8.36875 25.4969 7.96563 25.2344 7.54844 24.8172C7.12656 24.3953 6.86875 23.9969 6.65313 23.4391C6.48906 23.0172 6.29219 22.3797 6.24063 21.2125C6.18438 19.9469 6.17031 19.5672 6.17031 16.3656C6.17031 13.1594 6.18438 12.7797 6.24063 11.5187C6.29219 10.3469 6.48906 9.71406 6.65313 9.29219C6.86875 8.73438 7.13125 8.33125 7.54844 7.91406C7.97031 7.49219 8.36875 7.23438 8.92656 7.01875C9.34844 6.85469 9.98594 6.65781 11.1531 6.60625C12.4141 6.55 12.7938 6.53594 16 6.53594ZM16 4.375C12.7422 4.375 12.3344 4.38906 11.0547 4.44531C9.77969 4.50156 8.90313 4.70781 8.14375 5.00312C7.35156 5.3125 6.68125 5.72031 6.01563 6.39062C5.34531 7.05625 4.9375 7.72656 4.62813 8.51406C4.33281 9.27813 4.12656 10.15 4.07031 11.425C4.01406 12.7094 4 13.1172 4 16.375C4 19.6328 4.01406 20.0406 4.07031 21.3203C4.12656 22.5953 4.33281 23.4719 4.62813 24.2313C4.9375 25.0234 5.34531 25.6938 6.01563 26.3594C6.68125 27.025 7.35156 27.4375 8.13906 27.7422C8.90313 28.0375 9.775 28.2437 11.05 28.3C12.3297 28.3562 12.7375 28.3703 15.9953 28.3703C19.2531 28.3703 19.6609 28.3562 20.9406 28.3C22.2156 28.2437 23.0922 28.0375 23.8516 27.7422C24.6391 27.4375 25.3094 27.025 25.975 26.3594C26.6406 25.6938 27.0531 25.0234 27.3578 24.2359C27.6531 23.4719 27.8594 22.6 27.9156 21.325C27.9719 20.0453 27.9859 19.6375 27.9859 16.3797C27.9859 13.1219 27.9719 12.7141 27.9156 11.4344C27.8594 10.1594 27.6531 9.28281 27.3578 8.52344C27.0625 7.72656 26.6547 7.05625 25.9844 6.39062C25.3188 5.725 24.6484 5.3125 23.8609 5.00781C23.0969 4.7125 22.225 4.50625 20.95 4.45C19.6656 4.38906 19.2578 4.375 16 4.375Z" fill="#8D9DBF"/>
<path d="M16 10.2109C12.5969 10.2109 9.83594 12.9719 9.83594 16.375C9.83594 19.7781 12.5969 22.5391 16 22.5391C19.4031 22.5391 22.1641 19.7781 22.1641 16.375C22.1641 12.9719 19.4031 10.2109 16 10.2109ZM16 20.3734C13.7922 20.3734 12.0016 18.5828 12.0016 16.375C12.0016 14.1672 13.7922 12.3766 16 12.3766C18.2078 12.3766 19.9984 14.1672 19.9984 16.375C19.9984 18.5828 18.2078 20.3734 16 20.3734Z" fill="#8D9DBF"/>
<path d="M23.8469 9.96714C23.8469 10.764 23.2 11.4062 22.4078 11.4062C21.6109 11.4062 20.9688 10.7593 20.9688 9.96714C20.9688 9.17026 21.6156 8.52808 22.4078 8.52808C23.2 8.52808 23.8469 9.17495 23.8469 9.96714Z" fill="#8D9DBF"/>
</g>
<defs>
<clipPath id="clip0_598_6340">
<rect width="24" height="24" fill="white" transform="translate(4 4.375)"/>
</clipPath>
</defs>
</svg>
