<svg width="32" height="33" viewBox="0 0 32 33" fill="none" xmlns="http://www.w3.org/2000/svg">
<g clip-path="url(#clip0_598_6342)">
<path d="M26.2234 4.375H5.77187C4.79219 4.375 4 5.14844 4 6.10469V26.6406C4 27.5969 4.79219 28.375 5.77187 28.375H26.2234C27.2031 28.375 28 27.5969 28 26.6453V6.10469C28 5.14844 27.2031 4.375 26.2234 4.375ZM11.1203 24.8266H7.55781V13.3703H11.1203V24.8266ZM9.33906 11.8094C8.19531 11.8094 7.27188 10.8859 7.27188 9.74687C7.27188 8.60781 8.19531 7.68437 9.33906 7.68437C10.4781 7.68437 11.4016 8.60781 11.4016 9.74687C11.4016 10.8812 10.4781 11.8094 9.33906 11.8094ZM24.4516 24.8266H20.8937V19.2578C20.8937 17.9312 20.8703 16.2203 19.0422 16.2203C17.1906 16.2203 16.9094 17.6687 16.9094 19.1641V24.8266H13.3563V13.3703H16.7687V14.9359H16.8156C17.2891 14.0359 18.4516 13.0844 20.1813 13.0844C23.7859 13.0844 24.4516 15.4563 24.4516 18.5406V24.8266Z" fill="#8D9DBF"/>
</g>
<defs>
<clipPath id="clip0_598_6342">
<rect width="24" height="24" fill="white" transform="translate(4 4.375)"/>
</clipPath>
</defs>
</svg>
