<svg width="468" height="468" viewBox="0 0 468 468" fill="none" xmlns="http://www.w3.org/2000/svg">
<rect width="127" height="31.7738" transform="translate(0 0.113281)"/>
<path d="M165.076 260H172.864L172.655 223.494L175.715 229.266L195.463 260H203.598V212.716H195.81L196.019 249.153L193.029 243.59L173.212 212.716H165.076V260ZM246.098 247.901H238.31C237.058 252.49 233.721 254.715 228.992 254.715C222.943 254.715 219.396 250.474 218.979 242.894H245.82V241.087C245.82 229.196 239.353 221.964 228.645 221.964C218.075 221.964 211.4 228.918 211.4 241.504C211.4 253.603 218.075 260.904 228.992 260.904C237.684 260.904 244.081 256.523 246.098 247.901ZM228.645 228.153C233.929 228.153 237.197 231.56 238.101 237.818H219.188C220.092 231.56 223.29 228.153 228.645 228.153ZM276.636 244.633C276.636 249.778 273.298 254.715 267.874 254.715C262.937 254.715 260.712 251.517 260.712 246.163V222.938H253.272V247.692C253.272 256.454 258 260.904 265.579 260.904C270.308 260.904 274.202 258.957 276.636 254.993V260H284.006V222.938H276.636V244.633ZM294.038 248.944C294.038 256.94 297.445 260.904 304.677 260.904C306.763 260.904 308.501 260.626 309.335 260.209V254.785H307.875C302.66 254.785 301.478 252.768 301.478 248.527V228.709H309.474V222.938H301.478V214.385H294.038V222.938H289.031V228.709H294.038V248.944ZM315.066 260H322.506V239.765C322.506 233.299 325.565 228.987 332.658 228.987C334.188 228.987 335.509 229.127 336.621 229.474V222.938C335.926 222.312 334.535 221.964 333.075 221.964C328.764 221.964 324.939 223.981 322.506 228.431V222.938H315.066V260ZM348.164 235.037C348.859 230.865 351.432 228.223 356.23 228.223C361.932 228.223 364.435 231.143 364.435 236.567V237.401C357.76 237.471 352.753 237.888 347.816 239.557C342.254 241.434 339.472 245.189 339.472 250.265C339.472 257.358 344.618 260.904 352.128 260.904C356.578 260.904 361.376 258.957 364.505 254.576C364.574 256.662 364.783 258.609 365.339 260H373.127C372.293 257.983 371.876 255.411 371.876 250.96V236.497C371.876 227.875 366.869 221.964 356.786 221.964C347.538 221.964 341.906 226.832 340.724 235.037H348.164ZM346.982 249.987C346.982 245.745 350.181 242.616 364.435 242.477V244.146C364.435 250.126 359.707 255.063 353.518 255.063C349.555 255.063 346.982 253.116 346.982 249.987ZM382.874 240.739H393.721V251.656H399.701V240.739H410.479V234.898H399.701V224.05H393.721V234.898H382.874V240.739Z" fill="white"/>
<path d="M70.4716 217.957C73.7944 221.467 77.5059 224.469 81.6059 226.961C85.7327 229.453 90.1275 231.356 94.7902 232.669C99.4797 233.955 104.303 234.598 109.261 234.598C115.129 234.571 120.784 233.607 126.224 231.704C131.69 229.801 136.688 227.068 141.217 223.504L138.925 219.002C134.772 222.459 130.163 225.112 125.098 226.961C120.033 228.783 114.754 229.708 109.261 229.734C102.133 229.761 95.3797 228.301 89.002 225.353C82.651 222.405 77.2245 218.278 72.7225 212.973L70.4716 217.957ZM66.1706 240.909C71.3961 245.357 77.0905 248.908 83.2539 251.561C89.4441 254.187 95.8353 255.875 102.427 256.625C109.046 257.376 115.639 257.161 122.204 255.982C128.769 254.803 135.067 252.633 141.096 249.471L140.975 243.964C135.134 247.34 128.97 249.685 122.485 250.998C116 252.284 109.489 252.552 102.95 251.802C96.4382 251.052 90.1408 249.31 84.0578 246.576C77.9748 243.816 72.4144 240.105 67.3765 235.442L66.1706 240.909ZM86.1078 268.524L91.8559 269.85C90.516 266.608 89.4843 263.285 88.7608 259.881C88.0373 256.478 87.6487 253.021 87.5951 249.511C87.2199 242.838 87.8765 236.353 89.5647 230.056C91.2797 223.758 93.9059 217.876 97.4431 212.41C100.98 206.916 105.308 202.079 110.426 197.899L105.281 195.889C100.217 200.391 95.9425 205.509 92.4588 211.244C88.9752 216.952 86.3892 223.062 84.701 229.574C83.0395 236.058 82.383 242.731 82.7314 249.591C82.785 252.807 83.0931 255.996 83.6559 259.158C84.2186 262.32 85.0359 265.442 86.1078 268.524ZM112.597 272.503L117.139 270.493C113.388 265.187 110.507 259.453 108.497 253.289C106.514 247.099 105.523 240.721 105.523 234.156C105.523 227.912 106.407 221.869 108.175 216.027C109.944 210.186 112.53 204.732 115.933 199.668L111.19 197.979C107.76 203.366 105.147 209.127 103.352 215.264C101.557 221.4 100.659 227.698 100.659 234.156C100.659 241.096 101.677 247.823 103.714 254.334C105.75 260.819 108.711 266.875 112.597 272.503ZM136.273 257.55L139.528 253.852C135.026 251.279 131.127 248.05 127.831 244.165C124.562 240.279 122.016 235.951 120.194 231.181C118.399 226.411 117.461 221.4 117.38 216.148C117.354 213.334 117.581 210.547 118.064 207.787C118.546 205.027 119.296 202.361 120.315 199.788L115.612 198.462C114.54 201.275 113.749 204.17 113.24 207.144C112.731 210.092 112.49 213.107 112.517 216.188C112.597 221.896 113.602 227.363 115.531 232.588C117.461 237.787 120.194 242.53 123.731 246.818C127.269 251.078 131.449 254.656 136.273 257.55ZM87.5549 234.116C89.2699 234.116 90.7304 233.499 91.9363 232.267C93.169 231.034 93.7853 229.547 93.7853 227.805C93.7853 226.063 93.169 224.589 91.9363 223.383C90.7304 222.151 89.2699 221.534 87.5549 221.534C85.7863 221.534 84.2856 222.151 83.0529 223.383C81.8471 224.589 81.2441 226.063 81.2441 227.805C81.2441 229.547 81.8471 231.034 83.0529 232.267C84.2856 233.499 85.7863 234.116 87.5549 234.116ZM118.345 237.452C120.033 237.452 121.48 236.849 122.686 235.643C123.892 234.41 124.495 232.937 124.495 231.222C124.495 229.533 123.892 228.086 122.686 226.88C121.48 225.675 120.033 225.072 118.345 225.072C116.603 225.072 115.129 225.675 113.924 226.88C112.718 228.086 112.115 229.533 112.115 231.222C112.115 232.937 112.718 234.41 113.924 235.643C115.129 236.849 116.603 237.452 118.345 237.452ZM106.367 260.685C108.082 260.685 109.542 260.082 110.748 258.876C111.981 257.644 112.597 256.157 112.597 254.415C112.597 252.673 111.981 251.199 110.748 249.993C109.542 248.76 108.082 248.144 106.367 248.144C104.598 248.144 103.097 248.76 101.865 249.993C100.659 251.199 100.056 252.673 100.056 254.415C100.056 256.157 100.659 257.644 101.865 258.876C103.097 260.082 104.598 260.685 106.367 260.685ZM105 276C110.601 276 115.866 274.928 120.797 272.784C125.755 270.641 130.123 267.679 133.901 263.901C137.679 260.123 140.641 255.768 142.784 250.837C144.928 245.88 146 240.601 146 235C146 229.399 144.928 224.134 142.784 219.203C140.641 214.245 137.679 209.877 133.901 206.099C130.123 202.321 125.755 199.359 120.797 197.216C115.84 195.072 110.56 194 104.96 194C99.3591 194 94.0801 195.072 89.1225 197.216C84.1918 199.359 79.8373 202.321 76.0588 206.099C72.3072 209.877 69.3595 214.245 67.2157 219.203C65.0719 224.134 64 229.399 64 235C64 240.601 65.0719 245.88 67.2157 250.837C69.3595 255.768 72.3206 260.123 76.099 263.901C79.8775 267.679 84.232 270.641 89.1627 272.784C94.1203 274.928 99.3993 276 105 276ZM105 270.533C100.15 270.533 95.5807 269.595 91.2931 267.72C87.0056 265.871 83.2271 263.311 79.9578 260.042C76.6886 256.773 74.116 252.994 72.2402 248.707C70.3912 244.419 69.4667 239.85 69.4667 235C69.4667 230.15 70.3912 225.581 72.2402 221.293C74.116 217.006 76.6752 213.227 79.9176 209.958C83.1869 206.689 86.9654 204.129 91.2529 202.28C95.5405 200.405 100.109 199.467 104.96 199.467C109.81 199.467 114.379 200.405 118.667 202.28C122.954 204.129 126.733 206.689 130.002 209.958C133.298 213.227 135.871 217.006 137.72 221.293C139.595 225.581 140.533 230.15 140.533 235C140.533 239.85 139.595 244.419 137.72 248.707C135.871 252.994 133.311 256.773 130.042 260.042C126.773 263.311 122.994 265.871 118.707 267.72C114.419 269.595 109.85 270.533 105 270.533Z" fill="url(#paint0_linear_60_151)"/>
<defs>
<linearGradient id="paint0_linear_60_151" x1="105" y1="194" x2="105" y2="276" gradientUnits="userSpaceOnUse">
<stop stop-color="#1F5AFF"/>
<stop offset="1" stop-color="#1F5AFF"/>
</linearGradient>
</defs>
</svg>
