<svg width="25" height="26" viewBox="0 0 25 26" fill="none" xmlns="http://www.w3.org/2000/svg">
<path d="M7.5625 12.975C8.59153 15.1001 10.3098 16.814 12.4375 17.8375C12.5944 17.9119 12.768 17.944 12.9412 17.9309C13.1143 17.9177 13.2811 17.8597 13.425 17.7625L16.55 15.675C16.6881 15.5814 16.8476 15.5243 17.0137 15.509C17.1799 15.4937 17.3472 15.5207 17.5 15.5875L23.35 18.1C23.5499 18.1833 23.717 18.3299 23.8254 18.5174C23.9338 18.7048 23.9776 18.9227 23.95 19.1375C23.7646 20.5847 23.0582 21.9147 21.9631 22.8788C20.8679 23.8428 19.459 24.3747 18 24.375C13.4913 24.375 9.1673 22.584 5.97919 19.3959C2.79107 16.2077 1 11.8837 1 7.37504C1.00033 5.91604 1.53227 4.50714 2.49628 3.41199C3.4603 2.31683 4.79033 1.61046 6.2375 1.42504C6.4523 1.39745 6.67021 1.44123 6.85768 1.54965C7.04515 1.65807 7.19178 1.8251 7.275 2.02504L9.7875 7.88754C9.85284 8.03797 9.88017 8.20217 9.86709 8.36566C9.85401 8.52915 9.80092 8.68691 9.7125 8.82504L7.625 12C7.53206 12.1436 7.47752 12.3087 7.46657 12.4794C7.45563 12.6501 7.48866 12.8207 7.5625 12.975V12.975Z" stroke="#8D9DBF" stroke-width="2" stroke-linecap="round" stroke-linejoin="round"/>
</svg>
