<svg width="127" height="32" viewBox="0 0 127 32" fill="none" xmlns="http://www.w3.org/2000/svg">
<rect width="127" height="31.7738" transform="translate(0 0.113281)" fill="#00000000"/>
<path d="M5.62344 10.0226C6.75786 11.221 8.02494 12.2457 9.42467 13.0965C10.8336 13.9473 12.3339 14.5969 13.9258 15.0451C15.5268 15.4843 17.1735 15.7038 18.866 15.7038C20.8695 15.6947 22.7999 15.3653 24.657 14.7158C26.5233 14.0662 28.2296 13.1331 29.7757 11.9163L28.9935 10.3794C27.5754 11.5595 26.0019 12.4652 24.2728 13.0965C22.5437 13.7186 20.7415 14.0342 18.866 14.0434C16.4325 14.0525 14.127 13.5539 11.9497 12.5476C9.78147 11.5412 7.92888 10.1324 6.39192 8.32094L5.62344 10.0226ZM4.1551 17.8583C5.93907 19.377 7.88314 20.5892 9.98731 21.4949C12.1006 22.3914 14.2826 22.9678 16.5331 23.224C18.7928 23.4801 21.0434 23.4069 23.2848 23.0044C25.5262 22.6019 27.6761 21.8608 29.7345 20.7813L29.6933 18.9013C27.6989 20.054 25.5948 20.8545 23.3808 21.3028C21.1669 21.7419 18.9438 21.8334 16.7115 21.5772C14.4884 21.3211 12.3385 20.7264 10.2618 19.7932C8.18504 18.8509 6.28671 17.5839 4.56678 15.992L4.1551 17.8583ZM10.9616 27.2859L12.924 27.7388C12.4666 26.6318 12.1144 25.4974 11.8673 24.3355C11.6203 23.1736 11.4877 21.9935 11.4694 20.795C11.3413 18.517 11.5654 16.3031 12.1418 14.1532C12.7273 12.0032 13.6239 9.99513 14.8315 8.12882C16.0391 6.25336 17.5166 4.60204 19.264 3.17487L17.5074 2.48872C15.7784 4.02568 14.3192 5.77306 13.1298 7.73085C11.9405 9.6795 11.0577 11.7654 10.4813 13.9885C9.91412 16.2024 9.68998 18.4804 9.80891 20.8225C9.82721 21.9203 9.93242 23.009 10.1245 24.0885C10.3167 25.168 10.5957 26.2338 10.9616 27.2859ZM20.005 28.6445L21.5557 27.9583C20.2749 26.1469 19.2914 24.1891 18.6053 22.085C17.9283 19.9716 17.5898 17.7943 17.5898 15.5529C17.5898 13.4213 17.8917 11.3583 18.4955 9.36387C19.0993 7.36949 19.9821 5.50775 21.144 3.77867L19.5247 3.20231C18.3537 5.04118 17.4617 7.00812 16.8487 9.10314C16.2358 11.1982 15.9293 13.3481 15.9293 15.5529C15.9293 17.9224 16.277 20.2187 16.9722 22.4418C17.6675 24.6557 18.6785 26.7233 20.005 28.6445ZM28.0878 23.5396L29.1993 22.2771C27.6623 21.3988 26.3312 20.2964 25.206 18.9699C24.0898 17.6433 23.2207 16.1658 22.5986 14.5374C21.9857 12.9089 21.6655 11.1982 21.638 9.40504C21.6289 8.44444 21.7066 7.49299 21.8713 6.55069C22.036 5.60839 22.2921 4.6981 22.6398 3.81984L21.0342 3.36699C20.6683 4.32759 20.3984 5.31563 20.2246 6.33112C20.0507 7.33747 19.9684 8.36668 19.9775 9.41877C20.005 11.3674 20.3481 13.2337 21.0068 15.0177C21.6655 16.7925 22.5986 18.4118 23.8062 19.8756C25.0138 21.3302 26.441 22.5515 28.0878 23.5396ZM11.4557 15.5392C12.0412 15.5392 12.5398 15.3287 12.9514 14.9079C13.3723 14.4871 13.5827 13.9793 13.5827 13.3847C13.5827 12.79 13.3723 12.2868 12.9514 11.8752C12.5398 11.4543 12.0412 11.2439 11.4557 11.2439C10.8518 11.2439 10.3395 11.4543 9.9187 11.8752C9.50701 12.2868 9.30117 12.79 9.30117 13.3847C9.30117 13.9793 9.50701 14.4871 9.9187 14.9079C10.3395 15.3287 10.8518 15.5392 11.4557 15.5392ZM21.9674 16.6782C22.5437 16.6782 23.0377 16.4723 23.4494 16.0606C23.8611 15.6398 24.067 15.1366 24.067 14.5511C24.067 13.9748 23.8611 13.4807 23.4494 13.069C23.0377 12.6574 22.5437 12.4515 21.9674 12.4515C21.3727 12.4515 20.8695 12.6574 20.4578 13.069C20.0462 13.4807 19.8403 13.9748 19.8403 14.5511C19.8403 15.1366 20.0462 15.6398 20.4578 16.0606C20.8695 16.4723 21.3727 16.6782 21.9674 16.6782ZM17.878 24.61C18.4635 24.61 18.9621 24.4041 19.3737 23.9924C19.7946 23.5716 20.005 23.0639 20.005 22.4692C20.005 21.8745 19.7946 21.3714 19.3737 20.9597C18.9621 20.5389 18.4635 20.3284 17.878 20.3284C17.2741 20.3284 16.7618 20.5389 16.341 20.9597C15.9293 21.3714 15.7235 21.8745 15.7235 22.4692C15.7235 23.0639 15.9293 23.5716 16.341 23.9924C16.7618 24.4041 17.2741 24.61 17.878 24.61ZM17.4114 29.8384C19.3234 29.8384 21.1211 29.4724 22.8045 28.7405C24.4969 28.0087 25.9882 26.9977 27.2781 25.7078C28.5681 24.4178 29.579 22.9312 30.3109 21.2479C31.0427 19.5554 31.4087 17.7531 31.4087 15.8411C31.4087 13.929 31.0427 12.1313 30.3109 10.448C29.579 8.75549 28.5681 7.26428 27.2781 5.97433C25.9882 4.68438 24.4969 3.67346 22.8045 2.94158C21.112 2.20969 19.3097 1.84375 17.3977 1.84375C15.4856 1.84375 13.6833 2.20969 11.9908 2.94158C10.3075 3.67346 8.82087 4.68438 7.53092 5.97433C6.25012 7.26428 5.24378 8.75549 4.51189 10.448C3.78001 12.1313 3.41406 13.929 3.41406 15.8411C3.41406 17.7531 3.78001 19.5554 4.51189 21.2479C5.24378 22.9312 6.25469 24.4178 7.54464 25.7078C8.83459 26.9977 10.3212 28.0087 12.0046 28.7405C13.6971 29.4724 15.4993 29.8384 17.4114 29.8384ZM17.4114 27.9721C15.7555 27.9721 14.1957 27.6519 12.7319 27.0115C11.2681 26.3802 9.97816 25.5065 8.86204 24.3904C7.74591 23.2743 6.86765 21.9843 6.22725 20.5206C5.596 19.0568 5.28037 17.497 5.28037 15.8411C5.28037 14.1852 5.596 12.6253 6.22725 11.1616C6.86765 9.6978 7.74134 8.40785 8.84831 7.29172C9.96444 6.1756 11.2544 5.30191 12.7182 4.67066C14.1819 4.03026 15.7418 3.71006 17.3977 3.71006C19.0535 3.71006 20.6134 4.03026 22.0771 4.67066C23.5409 5.30191 24.8309 6.1756 25.947 7.29172C27.0723 8.40785 27.9505 9.6978 28.5818 11.1616C29.2222 12.6253 29.5424 14.1852 29.5424 15.8411C29.5424 17.497 29.2222 19.0568 28.5818 20.5206C27.9505 21.9843 27.0768 23.2743 25.9607 24.3904C24.8446 25.5065 23.5546 26.3802 22.0909 27.0115C20.6271 27.6519 19.0673 27.9721 17.4114 27.9721Z" fill="url(#paint0_linear_1360_12592)"/>
<path d="M37.9209 24.0645H40.5797L40.5085 11.6014L41.553 13.5718L48.2949 24.0645H51.0724V7.92189H48.4136L48.4848 20.3612L47.464 18.462L40.6984 7.92189H37.9209V24.0645ZM65.5816 19.9339H62.9228C62.4955 21.5006 61.356 22.2603 59.7418 22.2603C57.6765 22.2603 56.4658 20.8122 56.3234 18.2246H65.4866V17.6074C65.4866 13.548 63.2789 11.0792 59.6231 11.0792C56.0147 11.0792 53.7358 13.4531 53.7358 17.7499C53.7358 21.8805 56.0147 24.3731 59.7418 24.3731C62.7092 24.3731 64.8932 22.8775 65.5816 19.9339ZM59.6231 13.192C61.4272 13.192 62.543 14.3552 62.8516 16.4917H56.3946C56.7032 14.3552 57.7952 13.192 59.6231 13.192ZM76.0071 18.8181C76.0071 20.5748 74.8676 22.2603 73.016 22.2603C71.3305 22.2603 70.5709 21.1683 70.5709 19.3404V11.4115H68.0308V19.8626C68.0308 22.8538 69.645 24.3731 72.2326 24.3731C73.8469 24.3731 75.1762 23.7084 76.0071 22.3552V24.0645H78.5235V11.4115H76.0071V18.8181ZM81.9482 20.2899C81.9482 23.0199 83.1114 24.3731 85.5803 24.3731C86.2924 24.3731 86.8859 24.2781 87.1708 24.1357V22.284H86.6723C84.8918 22.284 84.4883 21.5956 84.4883 20.1475V13.3819H87.2183V11.4115H84.4883V8.49163H81.9482V11.4115H80.239V13.3819H81.9482V20.2899ZM89.127 24.0645H91.6671V17.1564C91.6671 14.9487 92.7116 13.4768 95.133 13.4768C95.6553 13.4768 96.1063 13.5243 96.4861 13.643V11.4115C96.2487 11.1979 95.774 11.0792 95.2754 11.0792C93.8036 11.0792 92.498 11.7676 91.6671 13.2869V11.4115H89.127V24.0645ZM100.427 15.5421C100.664 14.1178 101.543 13.2157 103.181 13.2157C105.127 13.2157 105.982 14.2127 105.982 16.0644V16.3493C103.703 16.373 101.994 16.5154 100.308 17.0852C98.409 17.7261 97.4594 19.008 97.4594 20.741C97.4594 23.1624 99.2161 24.3731 101.78 24.3731C103.299 24.3731 104.937 23.7084 106.006 22.2128C106.029 22.925 106.1 23.5897 106.29 24.0645H108.949C108.664 23.376 108.522 22.4977 108.522 20.9784V16.0406C108.522 13.097 106.813 11.0792 103.37 11.0792C100.213 11.0792 98.2903 12.7409 97.8867 15.5421H100.427ZM100.023 20.646C100.023 19.1979 101.115 18.1297 105.982 18.0822V18.6519C105.982 20.6935 104.368 22.379 102.255 22.379C100.902 22.379 100.023 21.7143 100.023 20.646ZM112.277 17.4887H115.98V21.2158H118.022V17.4887H121.701V15.4947H118.022V11.7914H115.98V15.4947H112.277V17.4887Z" fill="white"/>
<defs>
<linearGradient id="paint0_linear_1360_12592" x1="17.4114" y1="1.84375" x2="17.4114" y2="29.8384" gradientUnits="userSpaceOnUse">
<stop stop-color="#1F5AFF"/>
<stop offset="1" stop-color="#1F5AFF"/>
</linearGradient>
</defs>
</svg>
